<svg width="52" height="35" viewBox="0 0 52 35" fill="none" xmlns="http://www.w3.org/2000/svg">
<path fill-rule="evenodd" clip-rule="evenodd" d="M0.838867 4.83678C0.838867 2.51661 2.71974 0.635742 5.03991 0.635742H47.0503C49.3705 0.635742 51.2513 2.51661 51.2513 4.83678V30.043C51.2513 32.3632 49.3705 34.2441 47.0503 34.2441H5.03991C2.71974 34.2441 0.838867 32.3632 0.838867 30.043V4.83678ZM12.9378 24.2369V14.0074H9.47191V11.4657C10.1021 11.4517 10.6482 11.3957 11.1103 11.2977C11.5864 11.1857 11.9925 11.0316 12.3286 10.8356C12.6647 10.6395 12.9448 10.3945 13.1688 10.1004C13.3929 9.79233 13.5889 9.42824 13.757 9.00813H16.3826V24.2369H12.9378ZM25.5627 24.51C24.6805 24.51 23.8613 24.4049 23.1051 24.1949C22.3489 23.9848 21.6908 23.6768 21.1306 23.2707C20.5705 22.8506 20.1294 22.3464 19.8073 21.7583C19.4992 21.1561 19.3452 20.477 19.3452 19.7208C19.3452 19.0066 19.4922 18.3414 19.7863 17.7253C20.0804 17.0951 20.6195 16.535 21.4037 16.0449C20.8716 15.6808 20.4655 15.2607 20.1854 14.7846C19.9053 14.2944 19.7653 13.6503 19.7653 12.8521C19.7653 12.2779 19.8983 11.7458 20.1644 11.2557C20.4445 10.7516 20.8365 10.3175 21.3407 9.95337C21.8448 9.57528 22.4539 9.2812 23.1681 9.07115C23.8823 8.8611 24.6805 8.75607 25.5627 8.75607C26.4449 8.75607 27.2431 8.8611 27.9573 9.07115C28.6715 9.2812 29.2736 9.57528 29.7638 9.95337C30.2679 10.3175 30.653 10.7516 30.919 11.2557C31.1991 11.7458 31.3391 12.2779 31.3391 12.8521C31.3391 13.6503 31.1991 14.2944 30.919 14.7846C30.639 15.2607 30.2399 15.6808 29.7217 16.0449C30.5059 16.535 31.0451 17.0951 31.3391 17.7253C31.6332 18.3414 31.7803 19.0066 31.7803 19.7208C31.7803 20.477 31.6192 21.1561 31.2971 21.7583C30.9891 22.3464 30.555 22.8506 29.9948 23.2707C29.4347 23.6768 28.7765 23.9848 28.0203 24.1949C27.2641 24.4049 26.4449 24.51 25.5627 24.51ZM25.5627 21.9473C25.9968 21.9473 26.3749 21.8843 26.697 21.7583C27.0331 21.6323 27.3132 21.4642 27.5372 21.2542C27.7613 21.0301 27.9293 20.778 28.0413 20.498C28.1674 20.2179 28.2304 19.9168 28.2304 19.5948C28.2304 18.9646 27.9993 18.4325 27.5372 17.9984C27.0891 17.5502 26.4309 17.3262 25.5627 17.3262C24.6945 17.3262 24.0293 17.5502 23.5672 17.9984C23.1191 18.4325 22.8951 18.9646 22.8951 19.5948C22.8951 19.9168 22.9511 20.2179 23.0631 20.498C23.1891 20.778 23.3642 21.0301 23.5882 21.2542C23.8123 21.4642 24.0854 21.6323 24.4074 21.7583C24.7435 21.8843 25.1286 21.9473 25.5627 21.9473ZM25.5627 15.0576C26.3469 15.0576 26.9351 14.8826 27.3272 14.5325C27.7192 14.1684 27.9153 13.7203 27.9153 13.1882C27.9153 12.642 27.7192 12.1939 27.3272 11.8438C26.9351 11.4938 26.3469 11.3187 25.5627 11.3187C24.7785 11.3187 24.1904 11.4938 23.7983 11.8438C23.4062 12.1939 23.2101 12.642 23.2101 13.1882C23.2101 13.7203 23.4062 14.1684 23.7983 14.5325C24.1904 14.8826 24.7785 15.0576 25.5627 15.0576ZM36.4162 18.1957V21.8366H39.2379V18.1957H43.079V15.6653H39.2379V12.0426H36.4162V15.6653H32.5568V18.1957H36.4162Z" fill="#CECCDA"/>
</svg>
