<svg width="34" height="34" viewBox="0 0 34 34" fill="none" xmlns="http://www.w3.org/2000/svg">
<path fill-rule="evenodd" clip-rule="evenodd" d="M27.2893 1.0429H7.15392C4.00313 1.0429 1.44891 3.59712 1.44891 6.74791V26.8832C1.44891 30.034 4.00313 32.5883 7.15392 32.5883H27.2893C30.44 32.5883 32.9943 30.034 32.9943 26.8832V6.74791C32.9943 3.59712 30.44 1.0429 27.2893 1.0429ZM7.15392 0.0361328C3.4471 0.0361328 0.442139 3.0411 0.442139 6.74791V26.8832C0.442139 30.5901 3.4471 33.595 7.15392 33.595H27.2893C30.9961 33.595 34.001 30.5901 34.001 26.8832V6.74791C34.001 3.0411 30.9961 0.0361328 27.2893 0.0361328H7.15392Z" fill="white"/>
<path fill-rule="evenodd" clip-rule="evenodd" d="M20.7915 9.63825L20.7835 9.62874C20.6923 9.5197 20.6162 9.42877 20.5463 9.34441C20.5048 9.29438 20.4655 9.24665 20.4265 9.19884C19.6141 8.20411 18.6535 7.38724 17.4169 6.99533C13.983 5.92034 9.29207 6.8159 7.22895 11.0592C5.70206 14.1961 5.66895 17.4887 6.62008 20.7861C7.48603 23.7876 9.33466 25.9471 12.4846 26.6459C15.7276 27.3652 18.5037 26.4523 20.6662 23.8679C20.8393 23.6927 21.0215 23.5267 21.212 23.3705V26.8049H27.2894V7.25031C26.8947 7.25031 26.5023 7.2498 26.1119 7.24929H26.1064C24.5472 7.24728 23.0187 7.24531 21.4912 7.27549C21.3334 7.27549 21.0873 7.62648 21.0684 7.83109C21.0285 8.26881 21.0346 8.71041 21.0417 9.23167V9.23205C21.0447 9.45291 21.0479 9.68807 21.0479 9.9433H21.0463C20.9485 9.82593 20.865 9.72621 20.7915 9.63825ZM12.6817 16.653C12.6817 14.3346 13.6281 12.7764 15.4121 12.1626C18.7971 10.9963 21.8366 13.4217 21.4438 16.9741C21.4091 17.2889 21.3634 17.6036 21.3003 17.9043C20.8271 20.2416 19.0069 21.6203 16.726 21.3921C14.2607 21.1466 12.7543 19.5522 12.6912 17.1236C12.6829 17.0067 12.6826 16.889 12.6823 16.771C12.6822 16.7317 12.6821 16.6923 12.6817 16.653Z" fill="white"/>
</svg>
