<svg width="44" height="34" viewBox="0 0 44 34" fill="none" xmlns="http://www.w3.org/2000/svg">
<path d="M42.8549 21.6531V21.1348H42.7253L42.5741 21.4803L42.423 21.1348H42.2934V21.6531H42.3798V21.2643L42.5309 21.6099H42.6389L42.7901 21.2643V21.6531H42.8549ZM41.991 21.6531V21.2211H42.1638V21.1348H41.7319V21.2211H41.9047V21.6531H41.991Z" fill="#EDEDED"/>
<path d="M27.5004 23.8772H15.8174V2.88672H27.5004V23.8772Z" fill="#CBCACA"/>
<path d="M16.5735 13.3819C16.5735 9.1277 18.5603 5.32695 21.67 2.8867C19.4025 1.0943 16.5303 0.0361328 13.4206 0.0361328C6.05669 0.0361328 0.0748291 6.01799 0.0748291 13.3819C0.0748291 20.7459 6.05669 26.7278 13.4206 26.7278C16.5303 26.7278 19.4025 25.6696 21.67 23.8772C18.5603 21.4369 16.5735 17.6362 16.5735 13.3819Z" fill="#8C8C8C"/>
<path d="M43.2652 13.3819C43.2652 20.7459 37.2833 26.7278 29.9193 26.7278C26.8096 26.7278 23.9375 25.6696 21.67 23.8772C24.7797 21.4369 26.7664 17.6362 26.7664 13.3819C26.7664 9.1277 24.7797 5.32695 21.67 2.8867C23.9375 1.0943 26.8096 0.0361328 29.9193 0.0361328C37.2833 0.0361328 43.2652 6.01799 43.2652 13.3819Z" fill="#EDEDED"/>
<path d="M31.4312 29.8158C31.5823 29.8158 31.8199 29.8374 31.9711 29.9021L31.7335 30.6364C31.5608 30.5716 31.4096 30.55 31.2584 30.55C30.7617 30.55 30.5026 30.8739 30.5026 31.457V33.4437H29.7252V29.9021H30.481V30.334C30.6969 30.0101 30.9993 29.8158 31.4312 29.8158ZM28.5806 30.5932H27.3281V32.1912C27.3281 32.5367 27.4577 32.7743 27.8464 32.7743C28.0407 32.7743 28.2999 32.7095 28.5374 32.5799L28.7534 33.2494C28.5158 33.4221 28.1271 33.5301 27.7816 33.5301C26.8746 33.5301 26.5507 33.0334 26.5507 32.2128V30.5932H25.838V29.8805H26.5507V28.8008H27.3281V29.8805H28.5806V30.5932ZM18.7116 31.349C18.798 30.8307 19.1003 30.4852 19.6618 30.4852C20.1585 30.4852 20.4824 30.7875 20.5688 31.349H18.7116ZM21.3678 31.6729C21.3678 30.5716 20.6768 29.8158 19.6834 29.8158C18.6468 29.8158 17.9126 30.5716 17.9126 31.6729C17.9126 32.7959 18.6684 33.5301 19.7266 33.5301C20.2665 33.5301 20.7416 33.4006 21.1735 33.0334L20.7848 32.472C20.4824 32.7095 20.1153 32.8391 19.7482 32.8391C19.2515 32.8391 18.798 32.6015 18.69 31.9753H21.3246C21.3462 31.8673 21.3678 31.7809 21.3678 31.6729ZM24.7583 30.8091C24.5423 30.6796 24.1104 30.5068 23.6569 30.5068C23.225 30.5068 22.9875 30.658 22.9875 30.9171C22.9875 31.1547 23.2466 31.2194 23.5921 31.2626L23.9593 31.3058C24.7367 31.4138 25.1902 31.7377 25.1902 32.364C25.1902 33.0334 24.6071 33.5301 23.5705 33.5301C22.9875 33.5301 22.4476 33.379 22.0373 33.0766L22.4044 32.472C22.6635 32.6663 23.0523 32.8391 23.5921 32.8391C24.1104 32.8391 24.3912 32.6879 24.3912 32.4072C24.3912 32.2128 24.1968 32.1048 23.7649 32.0401L23.3978 31.9969C22.5988 31.8889 22.1669 31.5218 22.1669 30.9603C22.1669 30.2477 22.7499 29.8158 23.6353 29.8158C24.1968 29.8158 24.7151 29.9453 25.0822 30.1829L24.7583 30.8091ZM34.2601 30.5284C34.109 30.5284 33.9578 30.55 33.8282 30.6148C33.6987 30.6796 33.5691 30.7443 33.4827 30.8523C33.3963 30.9603 33.31 31.0683 33.2452 31.2194C33.1804 31.349 33.1588 31.5218 33.1588 31.6729C33.1588 31.8457 33.1804 31.9969 33.2452 32.1264C33.31 32.256 33.3747 32.3856 33.4827 32.4936C33.5907 32.6015 33.6987 32.6663 33.8282 32.7311C33.9578 32.7959 34.109 32.8175 34.2601 32.8175C34.4113 32.8175 34.5625 32.7959 34.6921 32.7311C34.8216 32.6663 34.9512 32.6015 35.0376 32.4936C35.1455 32.3856 35.2103 32.2776 35.2751 32.1264C35.3399 31.9969 35.3615 31.8241 35.3615 31.6729C35.3615 31.5002 35.3399 31.349 35.2751 31.2194C35.2103 31.0899 35.1455 30.9603 35.0376 30.8523C34.9296 30.7443 34.8216 30.6796 34.6921 30.6148C34.5625 30.5716 34.4113 30.5284 34.2601 30.5284ZM34.2601 29.8158C34.5409 29.8158 34.8 29.8589 35.016 29.9669C35.2535 30.0533 35.4479 30.1829 35.6206 30.3556C35.7934 30.5284 35.923 30.7228 36.031 30.9387C36.1173 31.1763 36.1821 31.4138 36.1821 31.6729C36.1821 31.9321 36.1389 32.1912 36.031 32.4072C35.9446 32.6447 35.7934 32.8391 35.6206 32.9902C35.4479 33.163 35.2535 33.2926 35.016 33.379C34.7784 33.4653 34.5193 33.5301 34.2601 33.5301C33.9794 33.5301 33.7203 33.4869 33.5043 33.379C33.2668 33.2926 33.0724 33.163 32.8997 32.9902C32.7269 32.8175 32.5973 32.6231 32.4893 32.4072C32.403 32.1696 32.3382 31.9321 32.3382 31.6729C32.3382 31.4138 32.3814 31.1547 32.4893 30.9387C32.5757 30.7012 32.7269 30.5068 32.8997 30.3556C33.0724 30.1829 33.2668 30.0533 33.5043 29.9669C33.7203 29.8589 33.9794 29.8158 34.2601 29.8158ZM14.2198 31.6729C14.2198 31.0467 14.6301 30.5284 15.2996 30.5284C15.9474 30.5284 16.3578 31.0251 16.3578 31.6729C16.3578 32.3208 15.9258 32.7959 15.2996 32.7959C14.6301 32.7959 14.2198 32.2992 14.2198 31.6729ZM17.092 31.6729V29.9021H16.3146V30.334C16.077 30.0101 15.7099 29.8158 15.1916 29.8158C14.1982 29.8158 13.4208 30.5932 13.4208 31.6729C13.4208 32.7527 14.1982 33.5301 15.1916 33.5301C15.6883 33.5301 16.0554 33.3358 16.3146 33.0118V33.4437H17.092V31.6729ZM12.7514 33.4437V31.2194C12.7514 30.3772 12.2115 29.8158 11.3477 29.8158C10.8942 29.8158 10.4191 29.9453 10.0952 30.442C9.85761 30.0533 9.46889 29.8158 8.92902 29.8158C8.5619 29.8158 8.17318 29.9237 7.89245 30.334V29.9021H7.11502V33.4437H7.89245V31.4786C7.89245 30.8739 8.23797 30.5284 8.75625 30.5284C9.27454 30.5284 9.53368 30.8523 9.53368 31.457V33.4221H10.3111V31.457C10.3111 30.8523 10.6782 30.5068 11.1749 30.5068C11.6932 30.5068 11.9523 30.8307 11.9523 31.4354V33.4006H12.7514V33.4437Z" fill="#EDEDED"/>
<path d="M37.0024 33.1633V33.2497H37.0888C37.1103 33.2497 37.1319 33.2497 37.1319 33.2281C37.1535 33.2281 37.1535 33.2065 37.1535 33.1849C37.1535 33.1633 37.1535 33.1633 37.1319 33.1633C37.1319 33.1633 37.1103 33.1417 37.0888 33.1417H37.0024V33.1633ZM37.0888 33.1201C37.1319 33.1201 37.1535 33.1201 37.1751 33.1417C37.1967 33.1633 37.2183 33.1849 37.2183 33.2281C37.2183 33.2497 37.2183 33.2713 37.1967 33.2929C37.1751 33.3145 37.1535 33.3145 37.1103 33.3145L37.2183 33.4441H37.1319L37.024 33.3145H37.0024V33.4441H36.9376V33.1201H37.0888ZM37.0672 33.552C37.1104 33.552 37.1319 33.552 37.1751 33.5304C37.2183 33.5089 37.2399 33.4873 37.2615 33.4657C37.2831 33.4441 37.3047 33.4225 37.3263 33.3793C37.3479 33.3361 37.3479 33.3145 37.3479 33.2713C37.3479 33.2281 37.3479 33.2065 37.3263 33.1633C37.3047 33.1201 37.2831 33.0985 37.2615 33.0769C37.2399 33.0554 37.2183 33.0338 37.1751 33.0122C37.1535 32.9906 37.1104 32.9906 37.0672 32.9906C37.024 32.9906 37.0024 32.9906 36.9592 33.0122C36.916 33.0338 36.8944 33.0554 36.8728 33.0769C36.8512 33.0985 36.8296 33.1417 36.808 33.1633C36.7864 33.2065 36.7864 33.2281 36.7864 33.2713C36.7864 33.3145 36.7864 33.3361 36.808 33.3793C36.8296 33.4225 36.8512 33.4441 36.8728 33.4657C36.8944 33.4873 36.9376 33.5089 36.9592 33.5304C37.0024 33.552 37.024 33.552 37.0672 33.552ZM37.0672 32.9258C37.1104 32.9258 37.1535 32.9258 37.1967 32.9474C37.2399 32.969 37.2831 32.9906 37.3047 33.0122C37.3263 33.0338 37.3695 33.0769 37.3911 33.1201C37.4127 33.1633 37.4127 33.2065 37.4127 33.2497C37.4127 33.2929 37.4127 33.3361 37.3911 33.3793C37.3695 33.4225 37.3479 33.4657 37.3047 33.4873C37.2615 33.5088 37.2399 33.552 37.1967 33.5736C37.1535 33.5952 37.1104 33.5952 37.0672 33.5952C37.024 33.5952 36.9592 33.5952 36.916 33.5736C36.8728 33.552 36.8296 33.5304 36.808 33.4873C36.7864 33.4657 36.7432 33.4225 36.7216 33.3793C36.7 33.3361 36.7 33.2929 36.7 33.2497C36.7 33.2065 36.7 33.1633 36.7216 33.1201C36.7432 33.0769 36.7648 33.0338 36.808 33.0122C36.8296 32.9906 36.8728 32.9474 36.916 32.9474C36.9592 32.9258 37.024 32.9258 37.0672 32.9258Z" fill="#EDEDED"/>
</svg>
