<svg width="44" height="34" viewBox="0 0 44 34" fill="none" xmlns="http://www.w3.org/2000/svg">
<path fill-rule="evenodd" clip-rule="evenodd" d="M13.717 25.541C16.5803 25.541 19.2237 24.5972 21.3523 23.0038C18.6522 20.4358 16.969 16.8089 16.969 12.7887C16.969 8.76826 18.6522 5.14137 21.3523 2.57368C19.2237 0.979969 16.5803 0.0361328 13.717 0.0361328C6.67397 0.0361328 0.964417 5.74569 0.964417 12.7887C0.964417 19.8315 6.67397 25.541 13.717 25.541ZM31.0639 0.0361328C28.2003 0.0361328 25.5572 0.979969 23.4287 2.57368C26.1285 5.14137 27.8116 8.76826 27.8116 12.7887C27.8116 16.8089 26.1285 20.4358 23.4287 23.0038C25.5572 24.5972 28.2003 25.541 31.0639 25.541C38.1067 25.541 43.8162 19.8315 43.8162 12.7887C43.8162 5.74569 38.1067 0.0361328 31.0639 0.0361328ZM26.4693 12.7887C26.4693 9.09532 24.8992 5.76863 22.3905 3.43984C19.8814 5.76863 18.3113 9.09532 18.3113 12.7887C18.3113 16.4818 19.8814 19.8085 22.3905 22.1373C24.8992 19.8085 26.4693 16.4818 26.4693 12.7887Z" fill="#EDEDED"/>
<path d="M7.78022 33.5166V31.1623C7.78022 30.2599 7.23219 29.6713 6.29269 29.6713C5.82294 29.6713 5.31405 29.8283 4.96173 30.3383C4.68771 29.9067 4.29625 29.6713 3.70906 29.6713C3.31761 29.6713 2.92615 29.789 2.61299 30.2206V29.7498H1.79092V33.5166H2.61299V31.437C2.61299 30.77 2.96529 30.4561 3.51334 30.4561C4.06138 30.4561 4.3354 30.8092 4.3354 31.437V33.5166H5.15746V31.437C5.15746 30.77 5.54892 30.4561 6.05781 30.4561C6.60585 30.4561 6.87987 30.8092 6.87987 31.437V33.5166H7.78022ZM19.9546 29.7498H18.6236V28.6119H17.8015V29.7498H17.0578V30.4953H17.8015V32.2217C17.8015 33.0849 18.1538 33.595 19.0933 33.595C19.4457 33.595 19.8371 33.4773 20.1111 33.3204L19.8763 32.6141C19.6414 32.771 19.3674 32.8103 19.1716 32.8103C18.7802 32.8103 18.6236 32.5749 18.6236 32.1825V30.4953H19.9546V29.7498ZM26.9225 29.6713C26.4528 29.6713 26.1396 29.9067 25.9439 30.2206V29.7498H25.1218V33.5166H25.9439V31.3978C25.9439 30.77 26.2179 30.4168 26.7268 30.4168C26.8834 30.4168 27.0791 30.4561 27.2357 30.4953L27.4706 29.7106C27.314 29.6713 27.0791 29.6713 26.9225 29.6713ZM16.3923 30.0637C16.0008 29.789 15.4528 29.6713 14.8656 29.6713C13.9261 29.6713 13.2998 30.1422 13.2998 30.8877C13.2998 31.5155 13.7695 31.8686 14.5916 31.9863L14.983 32.0255C15.4136 32.104 15.6485 32.2217 15.6485 32.4179C15.6485 32.6926 15.3354 32.8888 14.7873 32.8888C14.2393 32.8888 13.8087 32.6926 13.5347 32.4964L13.1432 33.1242C13.5738 33.4381 14.161 33.595 14.7482 33.595C15.8443 33.595 16.4706 33.0849 16.4706 32.3787C16.4706 31.7116 15.9617 31.3585 15.1788 31.2408L14.7873 31.2016C14.435 31.1623 14.161 31.0838 14.161 30.8484C14.161 30.5738 14.435 30.4168 14.8656 30.4168C15.3354 30.4168 15.8051 30.613 16.04 30.7307L16.3923 30.0637ZM38.2356 29.6713C37.7659 29.6713 37.4527 29.9067 37.257 30.2206V29.7498H36.4349V33.5166H37.257V31.3978C37.257 30.77 37.531 30.4168 38.0399 30.4168C38.1965 30.4168 38.3922 30.4561 38.5488 30.4953L38.7837 29.7106C38.6271 29.6713 38.3922 29.6713 38.2356 29.6713ZM27.7446 31.6332C27.7446 32.771 28.5275 33.595 29.741 33.595C30.289 33.595 30.6805 33.4773 31.072 33.1634L30.6805 32.4964C30.3673 32.7318 30.0542 32.8495 29.7019 32.8495C29.0364 32.8495 28.5666 32.3787 28.5666 31.6332C28.5666 30.9269 29.0364 30.4561 29.7019 30.4168C30.0542 30.4168 30.3673 30.5345 30.6805 30.77L31.072 30.1029C30.6805 29.789 30.289 29.6713 29.741 29.6713C28.5275 29.6713 27.7446 30.4953 27.7446 31.6332ZM35.3388 31.6332V29.7498H34.5168V30.2206C34.2428 29.8675 33.8513 29.6713 33.3424 29.6713C32.2855 29.6713 31.4634 30.4953 31.4634 31.6332C31.4634 32.771 32.2855 33.595 33.3424 33.595C33.8905 33.595 34.2819 33.3988 34.5168 33.0457V33.5166H35.3388V31.6332ZM32.3246 31.6332C32.3246 30.9661 32.7552 30.4168 33.4599 30.4168C34.1253 30.4168 34.5951 30.9269 34.5951 31.6332C34.5951 32.3002 34.1253 32.8495 33.4599 32.8495C32.7552 32.8103 32.3246 32.3002 32.3246 31.6332ZM22.499 29.6713C21.403 29.6713 20.62 30.4561 20.62 31.6332C20.62 32.8103 21.403 33.595 22.5382 33.595C23.0862 33.595 23.6343 33.4381 24.0649 33.0849L23.6734 32.4964C23.3602 32.7318 22.9688 32.8888 22.5773 32.8888C22.0684 32.8888 21.5595 32.6533 21.4421 31.9863H24.2214C24.2214 31.8686 24.2214 31.7901 24.2214 31.6724C24.2606 30.4561 23.556 29.6713 22.499 29.6713ZM22.499 30.3776C23.0079 30.3776 23.3602 30.6915 23.4385 31.28H21.4812C21.5595 30.77 21.9118 30.3776 22.499 30.3776ZM42.894 31.6332V28.2588H42.0719V30.2206C41.7979 29.8675 41.4064 29.6713 40.8975 29.6713C39.8406 29.6713 39.0186 30.4953 39.0186 31.6332C39.0186 32.771 39.8406 33.595 40.8975 33.595C41.4456 33.595 41.837 33.3988 42.0719 33.0457V33.5166H42.894V31.6332ZM39.8798 31.6332C39.8798 30.9661 40.3104 30.4168 41.015 30.4168C41.6805 30.4168 42.1502 30.9269 42.1502 31.6332C42.1502 32.3002 41.6805 32.8495 41.015 32.8495C40.3104 32.8103 39.8798 32.3002 39.8798 31.6332ZM12.3994 31.6332V29.7498H11.5774V30.2206C11.3033 29.8675 10.9119 29.6713 10.403 29.6713C9.34606 29.6713 8.52399 30.4953 8.52399 31.6332C8.52399 32.771 9.34606 33.595 10.403 33.595C10.951 33.595 11.3425 33.3988 11.5774 33.0457V33.5166H12.3994V31.6332ZM9.34605 31.6332C9.34605 30.9661 9.77665 30.4168 10.4813 30.4168C11.1468 30.4168 11.6165 30.9269 11.6165 31.6332C11.6165 32.3002 11.1468 32.8495 10.4813 32.8495C9.77665 32.8103 9.34605 32.3002 9.34605 31.6332Z" fill="#EDEDED"/>
</svg>
