<svg width="51" height="34" viewBox="0 0 51 34" fill="none" xmlns="http://www.w3.org/2000/svg">
<path d="M46.3518 4.10254H4.34135V7.79565H46.3518V4.10254Z" fill="white"/>
<path d="M24.0348 11.8719L21.85 22.0318H19.2074L21.3926 11.8719H24.0348ZM35.1522 18.4323L36.543 14.6172L37.3432 18.4323H35.1522ZM38.1017 22.0318H40.5452L38.4105 11.8719H36.1564C35.6481 11.8719 35.2203 12.1652 35.0307 12.617L31.0654 22.0318H33.8407L34.3915 20.5147H37.7814L38.1017 22.0318ZM31.2033 18.715C31.215 16.0339 27.4767 15.8851 27.5018 14.6873C27.51 14.3231 27.8588 13.9351 28.6223 13.836C29.0007 13.7875 30.0448 13.7485 31.2284 14.2908L31.6914 12.1353C31.0556 11.9068 30.2374 11.6865 29.2196 11.6865C26.6072 11.6865 24.7696 13.0668 24.7548 15.0447C24.7379 16.5075 26.0678 17.3231 27.0672 17.81C28.0977 18.3077 28.4429 18.6278 28.4383 19.0723C28.4312 19.754 27.616 20.0559 26.8578 20.0673C25.5283 20.088 24.7578 19.7099 24.1436 19.4251L23.664 21.6522C24.2825 21.9338 25.4222 22.1788 26.6018 22.1914C29.3789 22.1914 31.1951 20.8274 31.2033 18.715ZM20.2589 11.8719L15.9773 22.0318H13.1844L11.0771 13.9236C10.9495 13.4249 10.8382 13.2417 10.45 13.0311C9.81416 12.6877 8.76526 12.3668 7.84264 12.1672L7.90517 11.8719H12.4018C12.9745 11.8719 13.4898 12.2514 13.6209 12.9074L14.734 18.7871L17.4828 11.8719H20.2589Z" fill="white"/>
<path d="M46.3525 26.0825H4.34215V29.776H46.3525V26.0825Z" fill="white"/>
<rect x="0.840417" y="0.736306" width="49.0121" height="32.208" stroke="white" stroke-width="1.40035"/>
</svg>
