<svg width="39" height="26" viewBox="0 0 39 26" fill="none" xmlns="http://www.w3.org/2000/svg">
<rect y="0.594238" width="38.1703" height="24.8107" rx="1.89916" fill="#EDEDED"/>
<path d="M35 14.9013V13.0785H32.0548V10H29.9452V13.0785H27V14.9013H29.9452V18H32.0548V14.9013H35Z" fill="#000055"/>
<path d="M8.39261 20V11.234H5.42261V9.056C5.96261 9.044 6.43061 8.996 6.82661 8.912C7.23461 8.816 7.58261 8.684 7.87061 8.516C8.15861 8.348 8.39861 8.138 8.59061 7.886C8.78261 7.622 8.95061 7.31 9.09461 6.95H11.3446V20H8.39261ZM18.8513 20.234C18.0953 20.234 17.3933 20.144 16.7453 19.964C16.0973 19.784 15.5333 19.52 15.0533 19.172C14.5733 18.812 14.1953 18.38 13.9193 17.876C13.6553 17.36 13.5233 16.778 13.5233 16.13C13.5233 15.518 13.6493 14.948 13.9013 14.42C14.1533 13.88 14.6153 13.4 15.2873 12.98C14.8313 12.668 14.4833 12.308 14.2433 11.9C14.0033 11.48 13.8833 10.928 13.8833 10.244C13.8833 9.752 13.9973 9.296 14.2253 8.876C14.4653 8.444 14.8013 8.072 15.2333 7.76C15.6653 7.436 16.1873 7.184 16.7993 7.004C17.4113 6.824 18.0953 6.734 18.8513 6.734C19.6073 6.734 20.2913 6.824 20.9033 7.004C21.5153 7.184 22.0313 7.436 22.4513 7.76C22.8833 8.072 23.2133 8.444 23.4413 8.876C23.6813 9.296 23.8013 9.752 23.8013 10.244C23.8013 10.928 23.6813 11.48 23.4413 11.9C23.2013 12.308 22.8593 12.668 22.4153 12.98C23.0873 13.4 23.5493 13.88 23.8013 14.42C24.0533 14.948 24.1793 15.518 24.1793 16.13C24.1793 16.778 24.0413 17.36 23.7653 17.876C23.5013 18.38 23.1293 18.812 22.6493 19.172C22.1693 19.52 21.6053 19.784 20.9573 19.964C20.3093 20.144 19.6073 20.234 18.8513 20.234ZM18.8513 18.038C19.2233 18.038 19.5473 17.984 19.8233 17.876C20.1113 17.768 20.3513 17.624 20.5433 17.444C20.7353 17.252 20.8793 17.036 20.9753 16.796C21.0833 16.556 21.1373 16.298 21.1373 16.022C21.1373 15.482 20.9393 15.026 20.5433 14.654C20.1593 14.27 19.5953 14.078 18.8513 14.078C18.1073 14.078 17.5373 14.27 17.1413 14.654C16.7573 15.026 16.5653 15.482 16.5653 16.022C16.5653 16.298 16.6133 16.556 16.7093 16.796C16.8173 17.036 16.9673 17.252 17.1593 17.444C17.3513 17.624 17.5853 17.768 17.8613 17.876C18.1493 17.984 18.4793 18.038 18.8513 18.038ZM18.8513 12.134C19.5233 12.134 20.0273 11.984 20.3633 11.684C20.6993 11.372 20.8673 10.988 20.8673 10.532C20.8673 10.064 20.6993 9.68 20.3633 9.38C20.0273 9.08 19.5233 8.93 18.8513 8.93C18.1793 8.93 17.6753 9.08 17.3393 9.38C17.0033 9.68 16.8353 10.064 16.8353 10.532C16.8353 10.988 17.0033 11.372 17.3393 11.684C17.6753 11.984 18.1793 12.134 18.8513 12.134Z" fill="#000055"/>
</svg>
